<svg width="109" height="28" viewBox="0 0 109 28" fill="none" xmlns="http://www.w3.org/2000/svg">
<path d="M34 14H24.4L21.2 18.5H14.8L11.6 14H2" stroke="#6696FF" stroke-width="3" stroke-linecap="round" stroke-linejoin="round"/>
<path d="M7.52 3.665L2 14V23C2 23.7956 2.33714 24.5587 2.93726 25.1213C3.53737 25.6839 4.35131 26 5.2 26H30.8C31.6487 26 32.4626 25.6839 33.0627 25.1213C33.6629 24.5587 34 23.7956 34 23V14L28.48 3.665C28.2151 3.16518 27.8067 2.74456 27.3007 2.45042C26.7948 2.15628 26.2113 2.0003 25.616 2H10.384C9.78867 2.0003 9.20522 2.15628 8.69927 2.45042C8.19332 2.74456 7.78492 3.16518 7.52 3.665Z" stroke="#6696FF" stroke-width="3" stroke-linecap="round" stroke-linejoin="round"/>
<path d="M44.4835 19V8.024H48.7235C49.8542 8.024 50.8195 8.22133 51.6195 8.616C52.4195 9 53.0328 9.59733 53.4595 10.408C53.8968 11.208 54.1155 12.2427 54.1155 13.512C54.1155 14.7707 53.8968 15.8053 53.4595 16.616C53.0328 17.4267 52.4195 18.0293 51.6195 18.424C50.8195 18.808 49.8542 19 48.7235 19H44.4835ZM46.2755 17.464H48.7075C49.2728 17.464 49.7742 17.3893 50.2115 17.24C50.6595 17.0907 51.0328 16.8613 51.3315 16.552C51.6408 16.2427 51.8702 15.8533 52.0195 15.384C52.1795 14.904 52.2595 14.3387 52.2595 13.688V13.352C52.2595 12.6907 52.1795 12.1253 52.0195 11.656C51.8702 11.176 51.6408 10.7813 51.3315 10.472C51.0328 10.1627 50.6595 9.93333 50.2115 9.784C49.7742 9.63467 49.2728 9.56 48.7075 9.56H46.2755V17.464ZM55.9626 19V10.584H57.3386L57.4826 11.944H57.5786C57.6746 11.6773 57.7973 11.4267 57.9466 11.192C58.1066 10.9573 58.3093 10.7653 58.5546 10.616C58.8106 10.4667 59.12 10.392 59.4826 10.392C59.6533 10.392 59.8026 10.408 59.9306 10.44C60.0693 10.472 60.176 10.4987 60.2506 10.52V12.088H59.6906C59.3493 12.088 59.0453 12.1413 58.7786 12.248C58.5226 12.3547 58.304 12.5147 58.1226 12.728C57.952 12.9307 57.824 13.1813 57.7386 13.48C57.664 13.7787 57.6266 14.1147 57.6266 14.488V19H55.9626ZM64.9216 19.192C64.047 19.192 63.3056 19.0373 62.6976 18.728C62.1003 18.408 61.647 17.9227 61.3376 17.272C61.039 16.6213 60.8896 15.7947 60.8896 14.792C60.8896 13.7787 61.039 12.952 61.3376 12.312C61.647 11.6613 62.1003 11.1813 62.6976 10.872C63.3056 10.552 64.047 10.392 64.9216 10.392C65.8176 10.392 66.5643 10.552 67.1616 10.872C67.759 11.1813 68.207 11.6613 68.5056 12.312C68.815 12.952 68.9696 13.7787 68.9696 14.792C68.9696 15.7947 68.815 16.6213 68.5056 17.272C68.207 17.9227 67.759 18.408 67.1616 18.728C66.5643 19.0373 65.8176 19.192 64.9216 19.192ZM64.9216 17.816C65.455 17.816 65.8923 17.7147 66.2336 17.512C66.575 17.2987 66.8256 16.9787 66.9856 16.552C67.1563 16.1253 67.2416 15.5867 67.2416 14.936V14.648C67.2416 13.9973 67.1563 13.4587 66.9856 13.032C66.8256 12.6053 66.575 12.2907 66.2336 12.088C65.8923 11.8747 65.455 11.768 64.9216 11.768C64.399 11.768 63.967 11.8747 63.6256 12.088C63.2843 12.2907 63.0283 12.6053 62.8576 13.032C62.6976 13.4587 62.6176 13.9973 62.6176 14.648V14.936C62.6176 15.5867 62.6976 16.1253 62.8576 16.552C63.0283 16.9787 63.2843 17.2987 63.6256 17.512C63.967 17.7147 64.399 17.816 64.9216 17.816ZM70.6658 21.768V10.584H72.0258L72.1698 11.736H72.2818C72.5698 11.288 72.9378 10.952 73.3858 10.728C73.8338 10.504 74.3351 10.392 74.8898 10.392C75.5831 10.392 76.1751 10.5467 76.6658 10.856C77.1671 11.1653 77.5511 11.6453 77.8177 12.296C78.0844 12.9467 78.2178 13.7893 78.2178 14.824C78.2178 15.8267 78.0791 16.6533 77.8018 17.304C77.5351 17.944 77.1564 18.4187 76.6658 18.728C76.1751 19.0373 75.6098 19.192 74.9698 19.192C74.5964 19.192 74.2498 19.1493 73.9298 19.064C73.6098 18.9787 73.3218 18.8453 73.0658 18.664C72.8204 18.4827 72.6071 18.2533 72.4258 17.976H72.3298V21.768H70.6658ZM74.3938 17.752C74.8951 17.752 75.3004 17.656 75.6098 17.464C75.9191 17.2613 76.1431 16.952 76.2818 16.536C76.4311 16.12 76.5058 15.592 76.5058 14.952V14.664C76.5058 13.992 76.4311 13.448 76.2818 13.032C76.1324 12.616 75.9031 12.312 75.5938 12.12C75.2951 11.928 74.9058 11.832 74.4258 11.832C73.9351 11.832 73.5351 11.944 73.2258 12.168C72.9164 12.3813 72.6871 12.7013 72.5378 13.128C72.3991 13.5547 72.3298 14.072 72.3298 14.68V14.904C72.3298 15.4053 72.3778 15.8373 72.4738 16.2C72.5698 16.5627 72.7084 16.8613 72.8898 17.096C73.0711 17.32 73.2898 17.4853 73.5458 17.592C73.8018 17.6987 74.0844 17.752 74.3938 17.752ZM80.1554 19V8.024H82.9554L85.0834 14.68C85.1474 14.872 85.2114 15.0907 85.2754 15.336C85.3394 15.5813 85.398 15.816 85.4514 16.04C85.5154 16.264 85.5634 16.4613 85.5954 16.632H85.7234C85.7447 16.472 85.782 16.28 85.8354 16.056C85.8887 15.832 85.942 15.5973 85.9954 15.352C86.0594 15.1067 86.1234 14.8773 86.1874 14.664L88.3314 8.024H91.0834V19H89.3074V12.984C89.3074 12.5787 89.3127 12.1573 89.3234 11.72C89.334 11.2827 89.3447 10.8933 89.3554 10.552C89.366 10.2107 89.3714 9.992 89.3714 9.896H89.2434C89.222 10.0133 89.1687 10.216 89.0834 10.504C89.0087 10.7813 88.9287 11.08 88.8434 11.4C88.758 11.72 88.678 11.9973 88.6034 12.232L86.3794 19H84.7954L82.5714 12.248C82.5074 12.0453 82.438 11.8053 82.3634 11.528C82.2887 11.2507 82.214 10.968 82.1394 10.68C82.0647 10.392 82.0007 10.1307 81.9474 9.896H81.8194C81.83 10.152 81.8354 10.4667 81.8354 10.84C81.846 11.2133 81.8567 11.592 81.8674 11.976C81.878 12.3493 81.8834 12.6853 81.8834 12.984V19H80.1554ZM95.5906 19.192C95.324 19.192 95.036 19.16 94.7266 19.096C94.4173 19.032 94.124 18.9147 93.8466 18.744C93.58 18.5733 93.3613 18.3387 93.1906 18.04C93.02 17.7307 92.9346 17.3307 92.9346 16.84C92.9346 16.264 93.068 15.7893 93.3346 15.416C93.6013 15.0427 93.9746 14.7493 94.4546 14.536C94.9346 14.3227 95.5053 14.1733 96.1666 14.088C96.8386 14.0027 97.5693 13.96 98.3586 13.96V13.128C98.3586 12.8507 98.3106 12.6053 98.2146 12.392C98.1293 12.1787 97.964 12.0133 97.7186 11.896C97.484 11.7787 97.1426 11.72 96.6946 11.72C96.2466 11.72 95.8946 11.7787 95.6386 11.896C95.3933 12.0027 95.2173 12.1413 95.1106 12.312C95.0146 12.472 94.9666 12.648 94.9666 12.84V13.08H93.3666C93.356 13.0267 93.3506 12.9733 93.3506 12.92C93.3506 12.8667 93.3506 12.8027 93.3506 12.728C93.3506 12.2267 93.4893 11.8053 93.7666 11.464C94.0546 11.112 94.4546 10.8453 94.9666 10.664C95.4786 10.4827 96.0706 10.392 96.7426 10.392C97.468 10.392 98.0706 10.4987 98.5506 10.712C99.0413 10.9147 99.4093 11.208 99.6546 11.592C99.9 11.976 100.023 12.44 100.023 12.984V17.256C100.023 17.4587 100.071 17.6027 100.167 17.688C100.273 17.7733 100.396 17.816 100.535 17.816H101.111V18.936C100.983 18.9893 100.823 19.0427 100.631 19.096C100.439 19.1493 100.215 19.176 99.9586 19.176C99.6706 19.176 99.4253 19.1227 99.2226 19.016C99.0306 18.92 98.8706 18.7813 98.7426 18.6C98.6253 18.408 98.5453 18.1947 98.5026 17.96H98.4066C98.2146 18.2053 97.98 18.424 97.7026 18.616C97.436 18.7973 97.1266 18.936 96.7746 19.032C96.4226 19.1387 96.028 19.192 95.5906 19.192ZM96.0546 17.816C96.3853 17.816 96.6893 17.768 96.9666 17.672C97.2546 17.5653 97.5 17.4213 97.7026 17.24C97.9053 17.048 98.0653 16.824 98.1826 16.568C98.3 16.3013 98.3586 16.0133 98.3586 15.704V15.144C97.6226 15.144 96.9773 15.1867 96.4226 15.272C95.868 15.3573 95.436 15.5173 95.1266 15.752C94.8173 15.976 94.6626 16.2907 94.6626 16.696C94.6626 16.9413 94.716 17.1493 94.8226 17.32C94.9293 17.48 95.0893 17.6027 95.3026 17.688C95.516 17.7733 95.7666 17.816 96.0546 17.816ZM102.26 9.128V7.432H103.924V9.128H102.26ZM102.26 19V10.584H103.924V19H102.26ZM106.072 19V7.432H107.736V19H106.072Z" fill="white"/>
</svg>
